# xmcd
#
# Track frame offsets:
#	187
#	18727
#	37180
#	51055
#	68080
#	86145
#	104367
#	121705
#	140572
#	158712
#	173595
#	189717
#	207490
#	228640
#	246690
#	268160
#	286802
#	304310
#
# Disc length: 4289 seconds
#
# Revision: 1
# Processed by: cddbd v1.5PL3 Copyright (c) Steve Scherf et al.
# Submitted via: CDex 1.50Beta5
#
DISCID=1210bf12
DTITLE=大橋純子 - 大橋純子/THE BEST
DYEAR=1989
DGENRE=Pop
TTITLE0=鍵はかえして!
TTITLE1=ペーパー・ムーン
TTITLE2=キャシーの噂
TTITLE3=シンプル・ラブ
TTITLE4=ミスター・スマイル
TTITLE5=クリスタル・シティ
TTITLE6=たそがれマイ・ラブ
TTITLE7=サファリ・ナイト
TTITLE8=ビューティフル・ミー
TTITLE9=カナディアン・ララバイ
TTITLE10=燃えつきて
TTITLE11=ファンタジック・ウーマン
TTITLE12=シルエット・ロマンス
TTITLE13=サンバ・ソレイユ
TTITLE14=黄昏
TTITLE15=LOST LOVE
TTITLE16=夏女ソニア
TTITLE17=恋はマジック
EXTD=
EXTT0=
EXTT1=
EXTT2=
EXTT3=
EXTT4=
EXTT5=
EXTT6=
EXTT7=
EXTT8=
EXTT9=
EXTT10=
EXTT11=
EXTT12=
EXTT13=
EXTT14=
EXTT15=
EXTT16=
EXTT17=
PLAYORDER=
